<?xml version="1.0" standalone="no"?>
<!DOCTYPE svg PUBLIC "-//W3C//DTD SVG 20010904//EN"
 "http://www.w3.org/TR/2001/REC-SVG-20010904/DTD/svg10.dtd">
<svg version="1.0" xmlns="http://www.w3.org/2000/svg"
 width="256.000000pt" height="256.000000pt" viewBox="0 0 256.000000 256.000000"
 preserveAspectRatio="xMidYMid meet">

<g transform="translate(0.000000,256.000000) scale(0.100000,-0.100000)"
fill="#000000" stroke="none">
<path d="M387 2527 c-3 -8 35 -62 84 -123 l88 -109 1 -114 0 -114 -97 -102
c-148 -154 -237 -311 -295 -522 -19 -68 -22 -104 -22 -273 0 -169 3 -205 22
-273 57 -206 148 -368 289 -517 l92 -96 -89 -105 c-48 -57 -90 -113 -92 -124
-3 -20 6 -20 392 -26 217 -4 606 -4 863 -1 l468 5 145 175 c79 96 144 181 144
188 0 11 -23 14 -108 14 -60 0 -111 3 -115 6 -3 3 18 41 47 83 243 347 285
769 114 1150 -78 173 -234 357 -398 466 -205 137 -399 195 -651 195 l-128 0
-3 113 -3 112 -371 3 c-305 2 -373 0 -377 -11z m733 -19 c0 -11 -71 -17 -258
-22 -94 -3 -177 -8 -182 -11 -15 -9 -12 -32 5 -39 8 -3 15 -1 15 5 0 7 11 9
28 5 15 -3 21 -3 15 0 -20 9 -15 24 7 24 11 0 20 -5 20 -11 0 -6 7 -17 15 -25
13 -14 15 -14 15 1 0 10 6 15 18 13 9 -2 16 -11 14 -18 -3 -10 2 -9 17 4 11
10 25 15 31 11 6 -4 22 1 36 10 14 9 28 14 31 11 3 -3 -2 -8 -11 -12 -20 -8
-21 -44 -2 -44 8 0 22 7 30 16 9 8 24 14 33 12 10 -1 23 1 30 5 16 10 15 -65
-1 -75 -8 -6 -7 -8 1 -8 12 0 19 -34 29 -150 4 -36 8 -456 10 -935 3 -478 7
-880 9 -892 l5 -23 554 -2 c305 -2 557 -6 561 -9 3 -4 -15 -30 -41 -58 -37
-40 -50 -49 -60 -40 -11 9 -15 7 -20 -5 -3 -9 -10 -13 -15 -10 -5 3 -9 -3 -9
-12 0 -14 -3 -15 -12 -6 -19 19 -27 14 -22 -12 3 -19 -1 -25 -21 -28 -13 -3
-28 -1 -32 3 -5 5 -24 -5 -42 -21 -18 -17 -37 -28 -42 -25 -5 4 -9 2 -9 -3 0
-6 -13 -6 -35 1 -19 6 -35 14 -35 19 0 4 -5 8 -11 8 -5 0 -8 -3 -6 -7 3 -5 -7
-9 -21 -10 -15 -1 -43 -5 -62 -8 -79 -13 -416 -22 -535 -15 -5 0 -52 -1 -102
-3 -51 -1 -93 0 -93 3 0 4 -15 5 -32 3 -48 -4 -78 5 -78 23 0 12 6 15 24 10
28 -7 46 10 19 18 -10 2 -42 8 -72 11 -54 7 -54 8 -26 19 19 8 25 15 17 20 -6
4 -21 2 -33 -4 -11 -7 -23 -9 -26 -6 -3 3 -12 -2 -19 -12 -12 -16 -14 -16 -27
3 -10 13 -12 26 -7 41 6 16 4 26 -9 38 -10 9 -21 13 -24 9 -4 -3 -7 -2 -7 4 0
6 14 16 30 23 32 13 37 24 18 36 -7 4 -8 3 -4 -4 5 -9 -21 -32 -37 -32 -2 0
-3 21 -2 47 1 27 -2 51 -8 54 -14 10 -9 342 7 387 5 14 3 28 -4 38 -10 11 -13
185 -14 732 -1 520 -4 722 -13 737 -6 11 -26 34 -44 50 -34 32 -31 21 10 -34
l26 -35 0 -915 c0 -504 -2 -959 -5 -1012 l-5 -95 -73 -91 c-39 -50 -79 -93
-87 -97 -8 -3 -15 -12 -15 -21 0 -10 -10 -15 -30 -15 -16 0 -30 4 -30 9 0 4
44 60 97 122 l98 114 3 994 3 995 -22 30 c-13 17 -53 68 -91 112 -37 45 -68
85 -68 88 0 4 160 6 355 4 195 -2 355 -6 355 -10z m240 -246 c0 -5 18 -7 40
-5 36 4 40 2 41 -19 1 -17 3 -18 6 -5 5 18 14 20 61 11 17 -3 32 -14 35 -23 5
-20 -22 -49 -32 -33 -8 14 -71 12 -71 -2 0 -6 -4 -5 -9 3 -5 7 -14 10 -20 6
-7 -4 -18 -2 -26 5 -9 7 -15 8 -20 0 -3 -5 -37 -10 -75 -10 -72 0 -80 5 -80
56 0 23 2 24 75 24 41 0 75 -4 75 -8z m381 -95 c10 -8 13 -20 9 -37 -4 -17 -8
-21 -14 -12 -5 9 -12 9 -29 1 -18 -9 -20 -9 -9 2 15 16 16 30 1 27 -6 -2 -13
2 -16 9 -3 9 9 17 37 22 3 0 12 -5 21 -12z m54 -27 c3 -5 1 -10 -5 -10 -6 0
-9 -8 -6 -18 4 -12 1 -19 -7 -19 -10 0 -16 39 -8 55 3 6 20 1 26 -8z m90 -55
c13 -11 8 -10 -17 4 l-38 20 0 -22 c0 -18 -2 -19 -10 -7 -5 8 -10 23 -10 33 0
16 2 16 28 3 15 -8 36 -22 47 -31z m25 -41 c0 -2 -7 -4 -15 -4 -8 0 -15 4 -15
10 0 5 7 7 15 4 8 -4 15 -8 15 -10z m-344 -23 c-3 -4 10 -37 28 -72 29 -57 38
-65 79 -79 l46 -16 -72 -36 c-101 -50 -135 -81 -148 -134 -16 -63 -23 -47 -9
19 16 79 14 185 -4 236 -9 24 -16 45 -16 47 0 3 15 13 33 24 32 20 73 27 63
11z m-1057 -58 c9 -80 1 -116 -37 -167 -128 -168 -197 -356 -208 -570 -6 -119
13 -284 40 -350 14 -33 14 -37 -5 -49 -12 -9 -17 -20 -13 -31 3 -9 2 -16 -2
-16 -14 1 -45 27 -43 36 1 5 -5 25 -14 44 -46 104 -61 336 -32 503 17 93 62
231 101 309 26 52 29 62 14 53 -6 -3 -1 10 11 29 12 20 25 34 29 31 5 -3 12 0
16 6 4 8 3 9 -4 5 -18 -11 -14 3 9 35 11 16 24 27 29 24 8 -5 100 89 100 102
-1 4 -23 -17 -50 -47 -28 -30 -50 -51 -50 -46 0 9 92 115 101 115 3 1 7 -7 8
-16z m1551 -39 c0 -8 4 -14 9 -14 8 0 9 -21 2 -78 0 -7 -5 -11 -10 -8 -4 3 -6
17 -3 31 4 21 1 24 -14 18 -14 -5 -16 -3 -11 11 4 10 7 29 7 42 0 14 4 22 10
19 6 -3 10 -13 10 -21z m163 -209 c-3 -9 1 -15 9 -15 28 0 108 -199 133 -333
23 -120 19 -357 -6 -357 -4 0 -9 15 -11 33 l-4 32 -12 -27 c-6 -16 -19 -28
-29 -28 -16 0 -18 13 -18 143 -1 183 -30 319 -96 448 -21 42 -19 73 6 83 8 3
15 15 15 26 0 12 4 19 10 15 5 -3 7 -12 3 -20z m-787 -211 c-44 -91 -176 -274
-199 -274 -5 0 15 26 44 58 29 31 68 81 87 111 41 64 101 192 103 218 1 16 2
16 6 1 2 -10 -16 -61 -41 -114z m402 -350 c-3 -3 -48 -14 -99 -25 -51 -10
-138 -35 -193 -54 -101 -34 -132 -39 -79 -12 71 37 217 77 328 90 17 2 34 5
39 6 5 0 7 -2 4 -5z m462 -174 c0 -5 -2 -10 -4 -10 -3 0 -8 5 -11 10 -3 6 -1
10 4 10 6 0 11 -4 11 -10z m16 -32 c4 -6 2 -14 -4 -16 -6 -2 -8 -10 -5 -18 3
-9 -1 -14 -13 -14 -16 -1 -14 -5 11 -27 20 -18 24 -24 10 -19 -11 5 -28 11
-38 13 -18 6 -17 13 4 71 9 24 24 29 35 10z m34 -24 c0 -8 -5 -12 -10 -9 -6 4
-8 11 -5 16 9 14 15 11 15 -7z m-63 -119 c-11 -23 -27 -34 -27 -18 0 6 30 43
36 43 1 0 -3 -11 -9 -25z m-247 -24 c0 -6 -21 -13 -47 -17 -27 -5 -51 -9 -55
-10 -5 -1 -12 -2 -18 -3 -5 0 -10 -7 -10 -13 -1 -16 -47 -74 -54 -67 -3 2 2
28 10 56 17 58 20 59 117 62 31 0 57 -3 57 -8z m-704 -156 c-20 -15 -36 -19
-36 -10 0 5 38 23 50 24 3 0 -4 -6 -14 -14z m439 -21 c-22 -16 -124 -49 -131
-41 -3 2 21 12 53 21 32 9 65 21 73 26 24 15 27 11 5 -6z m555 -237 c0 -9 -69
-77 -79 -77 -6 0 -11 -6 -11 -14 0 -8 -4 -17 -9 -21 -14 -8 3 47 24 78 15 24
31 33 63 36 6 0 12 0 12 -2z m-1573 -221 c-2 -6 -16 -11 -30 -11 -32 -1 -32
-1 -12 19 17 16 48 11 42 -8z m68 -2 c-13 -10 -23 -10 -38 -3 -26 14 -6 28 30
21 24 -5 25 -6 8 -18z"/>
<path d="M2010 264 c0 -8 5 -12 10 -9 6 3 10 10 10 16 0 5 -4 9 -10 9 -5 0
-10 -7 -10 -16z"/>
<path d="M1360 2230 c0 -5 5 -10 11 -10 5 0 7 5 4 10 -3 6 -8 10 -11 10 -2 0
-4 -4 -4 -10z"/>
<path d="M330 1750 c-6 -11 -8 -20 -6 -20 3 0 10 9 16 20 6 11 8 20 6 20 -3 0
-10 -9 -16 -20z"/>
<path d="M2300 1134 c0 -8 5 -12 10 -9 6 4 8 11 5 16 -9 14 -15 11 -15 -7z"/>
</g>
</svg>
